<svg width="37" height="30" viewBox="0 0 37 30" fill="none" xmlns="http://www.w3.org/2000/svg">
<path d="M31.8855 4.05763C28.6902 1.41086 23.6376 0.962485 23.4241 0.943463C23.0866 0.913571 22.7663 1.11059 22.6279 1.42852C22.6226 1.43939 22.3405 2.28315 22.0677 3.09702C25.781 3.76687 28.304 5.2533 28.4384 5.33482C29.0685 5.71255 29.2794 6.54544 28.9117 7.19354C28.6678 7.62561 28.2262 7.86746 27.7728 7.86746C27.5474 7.86746 27.3206 7.80904 27.1124 7.68404C27.0754 7.66094 23.374 5.48972 18.5481 5.48972C13.7209 5.48972 10.0182 7.6623 9.98126 7.68404C9.35249 8.0604 8.54576 7.83893 8.18062 7.18947C7.81549 6.54272 8.02772 5.71255 8.65517 5.33482C8.78963 5.2533 11.3219 3.76143 15.0457 3.09295C14.7584 2.26957 14.4684 1.43939 14.4631 1.42852C14.3247 1.10923 14.0044 0.908136 13.6669 0.943463C13.4534 0.961126 8.40076 1.4095 5.16331 4.09296C3.47076 5.70439 0.0909424 15.1257 0.0909424 23.2712C0.0909424 23.4152 0.126533 23.5552 0.196397 23.6802C2.5309 27.9058 8.89508 29.0118 10.3451 29.0593C10.3543 29.0607 10.3622 29.0607 10.3701 29.0607C10.6259 29.0607 10.8671 28.9343 11.0187 28.721L12.5873 26.5307C9.14685 25.6761 7.32776 24.3323 7.21835 24.2495C6.63308 23.8052 6.50653 22.9546 6.93758 22.35C7.36731 21.7481 8.18985 21.6149 8.77512 22.0565C8.8239 22.0891 12.1813 24.5117 18.5455 24.5117C24.9347 24.5117 28.2829 22.0796 28.3159 22.0551C28.9011 21.6176 29.7263 21.7494 30.1547 22.3554C30.5818 22.9587 30.4579 23.8038 29.8753 24.2467C29.7659 24.3296 27.956 25.6707 24.5234 26.5253L26.0723 28.7196C26.2239 28.9343 26.4651 29.0593 26.7209 29.0593C26.7301 29.0593 26.738 29.0593 26.7459 29.0579C28.1972 29.0104 34.5614 27.9044 36.8946 23.6788C36.9644 23.5538 37 23.4139 37 23.2698C37 15.1257 33.6202 5.70439 31.8855 4.05763ZM13.2728 20.4356C11.8162 20.4356 10.6364 18.9152 10.6364 17.0388C10.6364 15.1624 11.8162 13.642 13.2728 13.642C14.7294 13.642 15.9091 15.1624 15.9091 17.0388C15.9091 18.9152 14.7294 20.4356 13.2728 20.4356ZM23.8182 20.4356C22.3616 20.4356 21.1819 18.9152 21.1819 17.0388C21.1819 15.1624 22.3616 13.642 23.8182 13.642C25.2748 13.642 26.4546 15.1624 26.4546 17.0388C26.4546 18.9152 25.2748 20.4356 23.8182 20.4356Z" fill="#947EFF"/>
</svg>
