<svg width="34" height="27" viewBox="0 0 34 27" fill="none" xmlns="http://www.w3.org/2000/svg">
<path d="M34 3.19594C32.7486 3.73903 31.4043 4.1045 29.9934 4.26935C31.4344 3.42595 32.5394 2.09059 33.0598 0.498368C31.7129 1.27914 30.2196 1.84651 28.6295 2.1532C27.3572 0.828056 25.5448 0 23.5389 0C19.6866 0 16.5639 3.05282 16.5639 6.81613C16.5639 7.35028 16.6267 7.87164 16.7444 8.36873C10.9476 8.08505 5.80855 5.37086 2.36683 1.24592C1.76793 2.25287 1.42402 3.4234 1.42402 4.67443C1.42402 7.03848 2.65451 9.12523 4.52575 10.3469C3.38287 10.3111 2.30668 10.0044 1.36649 9.49453C1.36649 9.52392 1.36649 9.55076 1.36649 9.58015C1.36649 12.8834 3.76993 15.6385 6.96189 16.2634C6.37737 16.4193 5.76016 16.5023 5.12334 16.5023C4.67482 16.5023 4.23676 16.4589 3.81178 16.3809C4.69967 19.0887 7.27572 21.0605 10.3278 21.1154C7.94131 22.9441 4.93373 24.0341 1.66463 24.0341C1.10234 24.0341 0.546594 24.0021 0 23.9382C3.08734 25.8716 6.75266 27 10.6926 27C23.5232 27 30.5374 16.6135 30.5374 7.60585C30.5374 7.31066 30.5308 7.01675 30.5177 6.72412C31.8816 5.76189 33.065 4.56198 34 3.19594Z" fill="#947EFF"/>
</svg>
