<svg width="37" height="30" viewBox="0 0 37 30" fill="none" xmlns="http://www.w3.org/2000/svg"><path d="M31.886 4.058C28.69 1.41 23.638.962 23.424.943a.798.798 0 00-.796.486c-.005.01-.288.854-.56 1.668 3.713.67 6.236 2.156 6.37 2.238.63.378.841 1.21.474 1.859a1.31 1.31 0 01-1.14.673c-.225 0-.451-.058-.66-.183-.037-.023-3.738-2.194-8.564-2.194-4.827 0-8.53 2.172-8.567 2.194a1.296 1.296 0 01-1.8-.495 1.38 1.38 0 01.474-1.854c.135-.082 2.667-1.574 6.39-2.242a395.94 395.94 0 00-.582-1.664.789.789 0 00-.796-.486c-.214.018-5.266.467-8.504 3.15C3.471 5.704.091 15.126.091 23.271a.85.85 0 00.105.41c2.335 4.225 8.7 5.33 10.15 5.378.008.002.016.002.024.002a.797.797 0 00.649-.34l1.568-2.19c-3.44-.855-5.26-2.199-5.369-2.281a1.387 1.387 0 01-.28-1.9 1.292 1.292 0 011.837-.294c.049.033 3.406 2.456 9.77 2.456 6.39 0 9.738-2.432 9.77-2.457a1.294 1.294 0 011.84.3 1.383 1.383 0 01-.28 1.892c-.11.083-1.919 1.424-5.352 2.278l1.55 2.195c.15.214.392.34.648.34.01 0 .017 0 .025-.002 1.451-.048 7.815-1.154 10.149-5.38A.835.835 0 0037 23.27c0-8.144-3.38-17.566-5.114-19.212zM13.273 20.436c-1.457 0-2.637-1.52-2.637-3.397 0-1.877 1.18-3.397 2.637-3.397 1.456 0 2.636 1.52 2.636 3.397 0 1.876-1.18 3.397-2.636 3.397zm10.545 0c-1.456 0-2.636-1.52-2.636-3.397 0-1.877 1.18-3.397 2.636-3.397 1.457 0 2.637 1.52 2.637 3.397 0 1.876-1.18 3.397-2.637 3.397z" fill="#947EFF"/></svg>