<svg width="34" height="27" viewBox="0 0 34 27" fill="none" xmlns="http://www.w3.org/2000/svg"><path d="M34 3.196a14.179 14.179 0 01-4.007 1.073A6.858 6.858 0 0033.06.5a14.186 14.186 0 01-4.43 1.654A7.04 7.04 0 0023.538 0c-3.852 0-6.975 3.053-6.975 6.816 0 .534.063 1.056.18 1.553A19.966 19.966 0 012.367 1.246a6.682 6.682 0 00-.943 3.428c0 2.364 1.23 4.451 3.102 5.673a7.085 7.085 0 01-3.16-.852v.085c0 3.303 2.404 6.059 5.596 6.683a7.13 7.13 0 01-3.15.118c.888 2.708 3.464 4.68 6.516 4.734a14.198 14.198 0 01-8.663 2.92c-.563 0-1.118-.033-1.665-.097A20.083 20.083 0 0010.693 27c12.83 0 19.844-10.387 19.844-19.394 0-.295-.006-.59-.02-.882A14.02 14.02 0 0034 3.196z" fill="#947EFF"/></svg>